<?xml version="1.0" standalone="no"?>
<!DOCTYPE svg PUBLIC "-//W3C//DTD SVG 20010904//EN"
 "http://www.w3.org/TR/2001/REC-SVG-20010904/DTD/svg10.dtd">
<svg version="1.0" xmlns="http://www.w3.org/2000/svg"
 width="512.000000pt" height="512.000000pt" viewBox="0 0 512.000000 512.000000"
 preserveAspectRatio="xMidYMid meet">
<metadata>
Created by potrace 1.14, written by Peter Selinger 2001-2017
</metadata>
<g transform="translate(0.000000,512.000000) scale(0.100000,-0.100000)"
fill="#000000" stroke="none">
<path d="M1613 4869 c-13 -13 -6 -3202 8 -3272 5 -26 24 -72 43 -101 109 -170
347 -197 500 -56 53 49 79 96 95 168 16 74 16 2728 0 2738 -9 5 -75 7 -251 4
l-28 0 0 -1354 c0 -1466 3 -1382 -52 -1374 l-23 3 -3 1482 -2 1483 1272 2
1273 3 3 120 c1 66 0 130 -3 143 l-5 22 -1408 0 c-976 0 -1411 -3 -1419 -11z"/>
<path d="M680 4352 c-7 -3 -10 -704 -10 -2043 l0 -2039 698 2 697 3 3 120 c1
66 0 130 -3 143 l-5 22 -538 0 c-295 0 -543 0 -549 0 -10 0 -13 191 -13 920
l0 920 25 0 c53 0 61 -23 68 -186 3 -82 11 -268 16 -414 10 -252 27 -617 36
-780 2 -41 4 -81 5 -87 0 -18 276 -18 282 0 4 12 -3 216 -21 617 -6 124 -16
356 -22 515 -6 160 -15 301 -20 315 -5 14 -21 39 -34 54 -30 35 -30 37 -5 66
29 33 28 23 49 550 6 135 18 396 26 580 26 557 32 705 26 712 -8 9 -269 14
-277 5 -8 -7 -15 -154 -38 -742 -45 -1115 -45 -1125 -98 -1125 -17 0 -18 33
-18 929 0 594 -4 932 -10 936 -10 6 -253 12 -270 7z"/>
<path d="M2525 4351 c-6 -6 -8 -66 -5 -148 l5 -138 320 0 320 0 0 145 0 145
-315 3 c-192 1 -320 -1 -325 -7z"/>
<path d="M3634 4332 c-94 -33 -179 -120 -203 -207 -8 -28 -11 -498 -11 -1622
l0 -1583 140 0 140 0 0 1576 c0 1067 3 1582 10 1595 6 11 21 19 35 19 14 0 29
-8 35 -19 7 -13 10 -528 10 -1595 l0 -1576 140 0 c105 0 140 3 140 13 0 6 0
712 0 1569 0 997 3 1566 10 1582 14 37 57 36 71 -1 15 -41 10 -3513 -5 -3519
-7 -3 -430 -6 -941 -7 l-930 -2 -3 -143 -3 -142 1088 2 1088 3 0 1910 0 1910
-26 56 c-36 76 -90 133 -157 166 -50 24 -69 28 -147 28 -73 0 -99 -5 -138 -23
l-48 -23 -46 22 c-64 31 -179 36 -249 11z"/>
<path d="M2517 3924 c-10 -10 -8 -2534 2 -2669 7 -88 13 -120 34 -161 48 -94
149 -160 262 -171 129 -12 263 65 322 185 l28 57 0 1380 0 1380 -120 3 c-66 1
-130 0 -142 -3 l-23 -5 0 -1355 c0 -1327 0 -1355 -19 -1365 -16 -8 -36 -7 -53
4 -2 0 -5 613 -8 1361 l-5 1360 -136 3 c-74 1 -138 -1 -142 -4z"/>
<path d="M1607 1203 c-9 -8 -9 -246 -1 -267 5 -14 44 -16 330 -16 l323 0 3
141 c2 77 1 143 -1 145 -7 7 -647 4 -654 -3z"/>
</g>
</svg>
